Coordinates
version=1
nRows=23
nColumns=23
inDegrees=yes

Units are S.I. units (second, meters, Newtons, ...)
If the header above contains a line with 'inDegrees', this indicates whether rotational values are in degrees (yes) or radians (no).

endheader
time	pelvis_tilt	pelvis_list	pelvis_rotation	pelvis_tx	pelvis_ty	pelvis_tz	hip_flexion_r	hip_adduction_r	hip_rotation_r	knee_angle_r	knee_angle_r_beta	ankle_angle_r	subtalar_angle_r	mtp_angle_r	hip_flexion_l	hip_adduction_l	hip_rotation_l	knee_angle_l	knee_angle_l_beta	ankle_angle_l	subtalar_angle_l	mtp_angle_l
     22.50000000	     -7.24349371	      5.45225014	      2.70995068	      2.31711097	      0.97268128	      1.00983658	     13.24205551	     -4.82550600	     -0.32565681	    106.28071064	      1.85494833	    -14.56165156	    -22.77389051	      0.00000000	     33.70811756	      6.71809234	     -8.17480015	     50.14725477	      0.87523471	     19.26235193	     -3.20112544	      0.00000000
     22.50666667	     -6.80439687	      5.33970737	      2.87538964	      2.31508910	      0.97025244	      1.01003300	     14.93233523	     -4.89137464	     -0.18711537	    108.09293594	      1.88657763	    -13.82179256	    -22.90297189	      0.00000000	     32.35061958	      6.66814700	     -7.73810729	     51.26841652	      0.89480267	     21.16370938	     -3.10170491	      0.00000000
     22.51333333	     -7.15305083	      5.08441771	      2.86487379	      2.31294810	      0.96715223	      1.01054834	     17.67398000	     -4.77527003	      0.12398806	    109.80419334	      1.91644471	    -12.82198191	    -22.30313793	      0.00000000	     31.75155845	      6.15865111	     -7.90675025	     52.31258939	      0.91302693	     23.25989094	     -1.45732447	      0.00000000
     22.52000000	     -7.06993126	      4.88698595	      2.88900210	      2.31128836	      0.96553919	      1.01080804	     19.86544163	     -4.73580782	      0.32344490	    111.05182855	      1.93822005	    -11.96570270	    -21.95244994	      0.00000000	     30.40035901	      5.87176554	     -7.77505388	     52.81946918	      0.92187365	     25.01458265	     -0.60806966	      0.00000000
     22.52666667	     -6.78817096	      4.65114584	      2.94206592	      2.30998681	      0.96514937	      1.01082817	     21.76910602	     -4.64849716	      0.42074554	    111.84534406	      1.95206951	    -11.40887083	    -21.97283780	      0.00000000	     28.58502427	      5.73951169	     -7.27350161	     52.80445952	      0.92161168	     26.13443185	     -0.47114137	      0.00000000
     22.53333333	     -6.83537856	      4.51491533	      2.76796942	      2.30886163	      0.96455356	      1.01115450	     24.10918037	     -4.64870018	      0.69704346	    112.49212870	      1.96335803	    -10.22354283	    -21.01402504	      0.00000000	     27.03334378	      5.35847298	     -7.54306267	     52.71652661	      0.92007696	     27.57395046	      0.59748614	      0.00000000
     22.54000000	     -6.75971911	      4.28743310	      2.59038422	      2.30815880	      0.96513467	      1.01137982	     26.20633704	     -4.45978237	      0.89401500	    112.65866476	      1.96626463	     -9.37756543	    -20.52545416	      0.00000000	     25.12120569	      5.05625868	     -7.48117941	     52.13446837	      0.90991813	     28.32053770	      1.04883438	      0.00000000
     22.54666667	     -6.84907157	      3.95150636	      2.53528829	      2.30786482	      0.96628829	      1.01142079	     28.34630231	     -4.19079071	      0.86302003	    112.41470143	      1.96200667	     -8.86138389	    -20.34205196	      0.00000000	     23.24650340	      4.79227278	     -7.12073945	     51.24677248	      0.89442491	     28.72998848	      1.26872925	      0.00000000
     22.55333333	     -6.60948324	      3.73646063	      2.12547616	      2.30804274	      0.96836776	      1.01189906	     30.08555286	     -3.86278456	      1.09559335	    111.90013969	      1.95302587	     -7.51794083	    -19.02317707	      0.00000000	     20.81821606	      4.39573863	     -7.39283351	     50.02115575	      0.87303386	     28.97366094	      1.94219650	      0.00000000
     22.56000000	     -6.62959183	      3.35015095	      1.71850879	      2.30847738	      0.97077138	      1.01248799	     31.98445657	     -3.26826632	      1.19399630	    111.01183640	      1.93752205	     -6.58963916	    -18.31416462	      0.00000000	     18.59480602	      3.94368371	     -7.43082436	     48.59478621	      0.84813902	     29.04010003	      2.17663143	      0.00000000
     22.56666667	     -7.04051733	      2.93021024	      1.47576094	      2.30913008	      0.97321644	      1.01284004	     34.15179136	     -2.69250260	      1.09556340	    109.80697448	      1.91649325	     -5.92108274	    -17.98717157	      0.00000000	     16.75312459	      3.61705827	     -7.15506403	     47.03503712	      0.82091626	     29.04155130	      2.51175724	      0.00000000
     22.57333333	     -6.08470886	      2.09992728	      1.03272736	      2.31106425	      0.97823619	      1.01356389	     34.46414022	     -1.62487890	      0.69169086	    108.00019005	      1.88495891	     -4.63362676	    -16.77883874	      0.00000000	     13.18985904	      2.49050526	     -7.67950880	     45.13156333	      0.78769438	     28.93452204	      3.83806697	      0.00000000
     22.58000000	     -6.14149507	      1.53250920	      0.44844082	      2.31257978	      0.98206596	      1.01449051	     35.92949062	     -0.66878434	      0.61807342	    106.15562802	      1.85276523	     -3.62443434	    -16.00587750	      0.00000000	     10.77030163	      1.84301847	     -8.05476506	     43.18840023	      0.75377978	     28.58393545	      4.41567932	      0.00000000
     22.58666667	     -5.95815400	      0.79737375	     -0.03039023	      2.31463975	      0.98672152	      1.01528807	     36.86417705	      0.41110522	      0.31321246	    103.91313272	      1.81362630	     -2.64839015	    -15.34688644	      0.00000000	      8.03152828	      1.04250878	     -8.44664130	     41.08934704	      0.71714439	     27.82089611	      5.19634410	      0.00000000
     22.59333333	     -5.80894768	      0.04436622	     -0.49417845	      2.31695383	      0.99172341	      1.01604442	     37.65948087	      1.47411189	     -0.06572215	    101.39119627	      1.76961021	     -1.73949401	    -14.84071967	      0.00000000	      5.30098034	      0.28034531	     -8.86351639	     38.83212890	      0.67774850	     26.36412961	      5.74332605	      0.00000000
     22.60000000	     -5.72764113	     -0.67741928	     -0.93019656	      2.31948827	      0.99693533	      1.01671671	     38.35637908	      2.49978597	     -0.44838960	     98.61064966	      1.72108051	     -0.89009009	    -14.39085058	      0.00000000	      2.63665025	     -0.35317961	     -9.20296012	     36.42831912	      0.63579411	     24.16488721	      5.90129083	      0.00000000
     22.60666667	     -5.72735443	     -1.25696868	     -1.46208114	      2.32215335	      1.00220245	      1.01747658	     39.01295183	      3.43609541	     -0.68480515	     95.64661125	      1.66934828	     -0.05046227	    -13.95088880	      0.00000000	      0.05156060	     -0.75603037	     -9.59938026	     33.87662857	      0.59125871	     21.26673891	      5.63241266	      0.00000000
     22.61333333	     -5.75621071	     -1.74726357	     -2.00028493	      2.32498506	      1.00754517	      1.01821592	     39.54778557	      4.27470279	     -0.87981078	     92.47591539	      1.61400920	      0.73121267	    -13.56635438	      0.00000000	     -2.47041329	     -1.00708029	    -10.02669816	     31.25171822	      0.54544538	     17.80096700	      5.18723271	      0.00000000
     22.62000000	     -5.82589801	     -2.12830669	     -2.55327964	      2.32792639	      1.01284434	      1.01895118	     39.98292188	      5.00804438	     -1.00650952	     89.12271994	      1.55548490	      1.45862531	    -13.26797853	      0.00000000	     -4.88304373	     -1.09361086	    -10.49876297	     28.60986453	      0.49933633	     13.84611868	      4.56219629	      0.00000000
     22.62666667	     -5.91447075	     -2.47586105	     -3.04546304	      2.33098782	      1.01813744	      1.01958416	     40.28350259	      5.65787968	     -1.16779227	     85.55327034	      1.49318625	      2.11941288	    -13.00299368	      0.00000000	     -7.19283738	     -1.09595235	    -10.87583501	     25.98489852	      0.45352203	      9.43740993	      3.56955071	      0.00000000
     22.63333333	     -6.10175686	     -2.65023631	     -3.55614382	      2.33401937	      1.02313785	      1.02023237	     40.58632199	      6.13734126	     -1.24015428	     81.85186505	      1.42858454	      2.72417351	    -12.75488195	      0.00000000	     -9.26024721	     -0.90528515	    -11.31728359	     23.48813642	      0.40994532	      4.78243778	      2.55044361	      0.00000000
     22.64000000	     -6.31545818	     -2.76277882	     -4.05717768	      2.33704074	      1.02790776	      1.02088087	     40.79598308	      6.54183351	     -1.30325607	     77.98033606	      1.36101362	      3.27397205	    -12.53022784	      0.00000000	    -11.12286712	     -0.68460665	    -11.93473010	     21.25373180	      0.37094760	      0.10579926	      1.68615815	      0.00000000
     22.64666667	     -6.62175138	     -2.71937579	     -4.54713701	      2.33997577	      1.03227747	      1.02150249	     41.01372422	      6.77094957	     -1.33204934	     73.98485843	      1.29127938	      3.80825578	    -12.21055872	      0.00000000	    -12.69482305	     -0.31132021	    -12.56603361	     19.30018553	      0.33685178	     -4.51031868	      0.70159576	      0.00000000
